<svg xmlns="http://www.w3.org/2000/svg" version="1.1" height="1024" viewBox="0 -960 10239.898 10239.898" width="1024" fill="#1f1f1f" id="svg1" xmlns:svg="http://www.w3.org/2000/svg"><metadata><rdf:RDF xmlns:rdf="http://www.w3.org/1999/02/22-rdf-syntax-ns#" xmlns:dc="http://purl.org/dc/elements/1.1/"><rdf:Description><dc:creator>RealFaviconGenerator</dc:creator><dc:source>https://realfavicongenerator.net</dc:source></rdf:Description></rdf:RDF></metadata><defs id="defs1"></defs><g id="g7" transform="matrix(8.6854514,0,0,8.6854514,932.96588,8530.2036)">
    <path d="m 480,-160 q -48,-38 -104,-59 -56,-21 -116,-21 -42,0 -82.5,11 -40.5,11 -77.5,31 -21,11 -40.5,-1 Q 40,-211 40,-234 v -482 q 0,-11 5.5,-21 5.5,-10 16.5,-15 46,-24 96,-36 50,-12 102,-12 58,0 113.5,15 55.5,15 106.5,45 v 484 q 51,-32 107,-48 56,-16 113,-16 36,0 70.5,6 34.5,6 69.5,18 v -480 q 15,5 29.5,10.5 14.5,5.5 28.5,13.5 11,5 16.5,15 5.5,10 5.5,21 v 482 q 0,23 -19.5,35 -19.5,12 -40.5,1 -37,-20 -77.5,-31 -40.5,-11 -82.5,-11 -60,0 -116,21 -56,21 -104,59 z m 80,-200 v -380 l 200,-200 v 400 z m -160,65 v -396 q -33,-14 -68.5,-21.5 -35.5,-7.5 -71.5,-7.5 -37,0 -72,7 -35,7 -68,21 v 397 q 35,-13 69.5,-19 34.5,-6 70.5,-6 36,0 70.5,6 34.5,6 69.5,19 z m 0,0 v -396 z" id="path1"></path>
    <path style="fill:#000000;fill-rule:evenodd;stroke:#000000;stroke-width:3.87879;stroke-linecap:round;paint-order:markers stroke fill" d="m 476.13728,-163.8528 c -3.0364,-4.91324 -47.2238,-32.094 -68.90876,-42.38764 -98.12857,-46.5806 -197.06821,-46.21332 -294.74367,1.094 -17.662718,8.55464 -24.339318,10.8298 -32.090166,10.93524 -12.4612,0.168 -25.958148,-7.346 -33.407808,-18.60248 l -5.289908,-7.993 -0.513164,-251.3734 -0.513168,-251.37344 5.361652,-10.58688 c 5.244268,-10.35509 5.884,-10.84883 29.220448,-22.55195 38.949174,-19.53284 87.595304,-33.75139 135.171504,-39.50864 22.48914,-2.72144 79.35987,-2.70379 100.18186,0.0311 49.61292,6.51645 99.73418,21.55646 141.2727,42.39202 l 26.1818,13.13271 0.4924,242.80745 c 0.272,133.54408 0.8196,242.8074 1.2196,242.8074 0.4,0 5.85112,-3.11 12.11368,-6.91132 15.85076,-9.62104 47.05136,-24.35444 66.6592,-31.47748 83.89152,-30.47576 173.9036,-33.59188 257.15052,-8.90216 9.50056,2.8176 19.23396,5.54832 21.62976,6.06804 l 4.356,0.9448 0.4924,-239.5896 0.4924,-239.58956 21.33344,8.17147 c 32.632,12.49912 43.50104,19.50797 49.96772,32.22155 l 5.36164,10.54106 -0.5132,251.37344 -0.5132,251.3734 -5.28992,7.99312 c -7.44964,11.25648 -20.9466,18.772 -33.4078,18.60248 -7.75084,-0.104 -14.42744,-2.3804 -32.09016,-10.93524 -71.311,-34.53824 -140.804,-43.7238 -215.55688,-28.49224 -47.12004,9.60116 -106.50828,36.96724 -143.51008,66.12948 -7.48912,5.90236 -10.39024,6.764 -12.31092,3.6564 z M 139.90403,-300.47616 c 77.92976,-24.87928 168.23231,-24.47596 243.86404,1.0892 9.06108,3.0628 16.75145,5.56876 17.08969,5.56876 0.34,0 0.392,-89.587 0.12,-199.0822 l -0.49292,-199.08223 -17.45454,-6.48943 c -78.24502,-29.09071 -171.75144,-29.15745 -248.3924,-0.17729 l -16.33487,6.17669 v 199.32722 c 0,109.63 0.218,199.3112 0.48484,199.29156 0.2668,-0.0196 9.76893,-2.9996 21.11616,-6.62228 z" id="path2"></path>
    <path style="fill:#1170ff;fill-opacity:1;fill-rule:evenodd;stroke:#000000;stroke-width:3.87879;stroke-linecap:round;paint-order:markers stroke fill" d="m 467.62172,-168.95792 c -11.14792,-8.81316 -48.27136,-30.8198 -64.2278,-38.07404 -61.45104,-27.93736 -125.48722,-38.14564 -185.64163,-29.59396 -36.03619,5.12296 -61.19149,12.85776 -103.32805,31.77148 -20.443872,9.17656 -25.978468,10.87376 -35.321892,10.83152 -9.12518,-0.0412 -12.5365,-1.07408 -19.33978,-5.8556 -4.543168,-3.19304 -10.640432,-9.27212 -13.549472,-13.509 l -5.289172,-7.7034 -0.503004,-252.23 -0.503002,-252.22997 5.260642,-8.97661 c 6.460236,-11.02355 11.521196,-14.70926 35.712148,-26.00777 44.987692,-21.01176 98.113422,-34.41322 148.927472,-37.56834 79.63512,-4.94467 149.85883,8.77091 220.60606,43.08715 l 28.60608,13.87548 0.4848,185.35838 C 479.7818,-453.83552 480,-344.58716 480,-313.00848 v 57.41576 l 6.96036,-4.39444 c 3.8284,-2.4168 16.48276,-9.15276 28.12124,-14.96852 65.22756,-32.59432 124.11756,-45.5132 198.54024,-43.55436 41.66872,1.0968 58.9096,3.6016 98.58444,14.32252 14.18016,3.8316 26.39832,6.35084 27.15152,5.59796 0.7532,-0.7528 1.6616,-108.20552 2.0184,-238.78364 0.356,-130.57806 1.3964,-237.41468 2.31,-237.41468 4.14836,0 48.76332,19.35822 56.33524,24.44358 4.6516,3.12404 11.0576,9.88574 14.23556,15.02599 l 5.77812,9.34591 -0.5088,252.44076 -0.5092,252.44072 -4.64444,7.11584 c -8.81576,13.50676 -25.91732,22.49164 -38.82352,20.39724 -3.5504,-0.576 -17.63764,-6.00264 -31.30524,-12.05892 -30.78436,-13.64088 -57.49516,-22.64672 -84.00164,-28.322 -26.98268,-5.77724 -87.9194,-6.33948 -115.8512,-1.0688 -51.25588,9.67168 -107.11388,33.34704 -147.84428,62.6636 -7.96584,5.7336 -15.8204,10.35736 -17.45452,10.27512 -1.6344,-0.084 -6.796,-3.1732 -11.47072,-6.86896 z M 173.57576,-310.20028 c 33.45008,-7.41632 57.53084,-9.4222 99.70397,-8.30524 42.94637,1.1376 66.77351,4.81764 103.73097,16.02128 12.60994,3.8228 23.10582,6.68188 23.32418,6.35368 0.22,-0.328 -0.096,-89.49412 -0.6962,-198.14648 l -1.09322,-197.54973 -12.60607,-4.65181 c -20.65132,-7.62062 -53.79529,-15.87254 -77.57575,-19.31419 -17.55321,-2.54041 -30.56361,-2.99455 -61.09091,-2.13247 -44.59818,1.25944 -63.95623,4.48552 -102.30303,17.04916 l -24.72728,8.10145 v 155.52843 c 0,85.54064 -0.57344,175.23288 -1.27436,199.31612 l -1.27436,43.78768 17.27434,-5.664 c 9.5009,-3.1152 26.87435,-7.79244 38.60772,-10.39388 z" id="path6"></path>
    <path style="fill:#ffffff;fill-opacity:1;fill-rule:evenodd;stroke:#000000;stroke-width:3.87879;stroke-linecap:round;paint-order:markers stroke fill" d="m 560.48484,-550.28228 v -188.64106 l 98.90908,-98.89484 98.90912,-98.89483 -0.104,198.78075 -0.104,198.78074 -98.80504,88.75512 -98.80504,88.75516 z" id="path7"></path>
  </g><style>@media (prefers-color-scheme: light) { :root { filter: contrast(1) brightness(1); } }
</style></svg>